<svg id="Icons" xmlns="http://www.w3.org/2000/svg" viewBox="0 0 48 48"><defs><style>.cls-1{fill:#595959;}.cls-2{fill:#fff;}</style></defs><title>icons</title><circle class="cls-1" cx="24" cy="24" r="24"/><path class="cls-2" d="M23.17,37.75a9,9,0,0,1-5,1.25C11.46,39,8,32.74,8,24.45,8,14.53,12.73,9,18.61,9a8.28,8.28,0,0,1,4.79,1.3L22.5,15.52a6.89,6.89,0,0,0-3.69-1.08c-3.49,0-6.2,3.15-6.2,9.63,0,5.83,2.31,9.5,6.23,9.5a7.82,7.82,0,0,0,3.66-1Z"/><path class="cls-2" d="M26,9.86A24.3,24.3,0,0,1,32,9.26c2.71,0,4.64.78,5.94,2.33A10.61,10.61,0,0,1,40,18.32a12.11,12.11,0,0,1-1.79,6.91A7.34,7.34,0,0,1,31.9,28.3a7.44,7.44,0,0,1-1.5-.13v10.4H26V9.86ZM30.4,23.07a4.53,4.53,0,0,0,1.47.17c2.34,0,3.78-1.77,3.78-4.75,0-2.68-1.24-4.27-3.43-4.27a5.1,5.1,0,0,0-1.82.26v8.59Z"/></svg>