<svg id="Icons" xmlns="http://www.w3.org/2000/svg" viewBox="0 0 48 48"><defs><style>.cls-1{fill:#595959;}.cls-2{fill:#fff;}</style></defs><title>icons</title><circle class="cls-1" cx="24" cy="24" r="24"/><path id="path9-5" class="cls-2" d="M13.37,23.74a10.13,10.13,0,0,0,.53,1.21c1.22,2.22,3.58,3.6,7.56,4a3.4,3.4,0,0,0-1.34,2.19,4.38,4.38,0,0,1-3.27.26c-1.56-.49-2.16-3.59-4.5-3.15-0.51.09-.41,0.43,0,0.71a4.6,4.6,0,0,1,1.9,2.27,3.84,3.84,0,0,0,3.88,2.63,11.61,11.61,0,0,0,1.79-.13s0,2.41,0,3.35S18.5,38.45,18.5,39a0.91,0.91,0,0,0,.87.22c0.77,0,2.36-.64,2.36-1.76,0-.89,0-3.89,0-4.42a1.69,1.69,0,0,1,.62-1.51s0.08,6.12-.15,6.95-0.73.83-.73,1.26c0,0.64,1.92.16,2.56-1.25,0.49-1.09.28-7.1,0.28-7.1h0.52s0,2.75,0,4-0.11,2.95.67,3.73c0.51,0.51,2.16,1.41,2.16.59,0-.48-0.9-0.87-0.9-2.15V31.59c0.72,0,.61,1.95.61,1.95l0.05,3.62A1.84,1.84,0,0,0,28.87,39c0.56,0.2,1.76.25,1.81-.08s-1.44-.82-1.46-1.84c0-.62,0-1,0-3.69s-0.36-3.71-1.63-4.5c3.91-.4,6.33-1.37,7.51-4a4.1,4.1,0,0,0,.43-1.21,14.6,14.6,0,0,0,.44-3.5,7.93,7.93,0,0,0-2.13-5.65c0.5-2.81-.08-4.09-0.36-4.53-1-.36-3.51.92-4.87,1.82-2.22-.65-6.93-0.59-8.69.17-3.25-2.33-5-2-5-2A6.85,6.85,0,0,0,14.68,15a6.6,6.6,0,0,0-1.87,4.89,12,12,0,0,0,.55,3.86h0Z"/></svg>