<svg id="Icons" xmlns="http://www.w3.org/2000/svg" viewBox="0 0 48 48"><defs><style>.cls-1{fill:#595959;}.cls-2{fill:#fff;}</style></defs><title>icons</title><circle class="cls-1" cx="24" cy="24" r="24"/><path class="cls-2" d="M15.79,37.79L10.93,10.21h5l1.55,11.37c0.46,3.27.88,6.83,1.22,9.61h0.06c0.33-3,.82-6.3,1.34-9.7l1.73-11.29h4.93l1.64,11.62c0.46,3.23.79,6.18,1.09,9.25H29.5c0.3-3.07.76-6.3,1.19-9.57l1.67-11.29h4.71L31.78,37.79h-5L25,25.92c-0.4-2.78-.73-5.36-1-8.51H24c-0.36,3.11-.7,5.73-1.19,8.51L20.87,37.79H15.79Z"/></svg>